<svg height="50" viewBox="0 0 190 50" width="190" xmlns="http://www.w3.org/2000/svg" xmlns:xlink="http://www.w3.org/1999/xlink"><clipPath id="a"><path d="m401.3 302.9c-1-1.7-2.4-3.2-4.2-4.3l-23-13.3c-3.3-1.9-7.4-2.1-10.8-.4-.3.1-.5.3-.7.4l-59.3 34.3-1.5.8c-3.2 1.9-7.2 1.9-10.4 0l-60.7-35.1c-3.3-1.9-7.4-2.1-10.8-.4-.3.1-.5.2-.7.4l-23 13.3c-.2.1-.5.3-.7.4-1.5 1-2.6 2.3-3.5 3.8-.8 1.4-1.3 3-1.5 4.6 0 .4-.1.8-.1 1.2v64.4 44.9c0 4.1 2.2 7.9 5.8 10l94.6 54.6c1.3.8 2.7 1.2 4.2 1.4 1.1.2 2.2.1 3.3 0 1.4-.2 2.8-.7 4.1-1.4l94.8-54.6c3.3-1.9 5.5-5.4 5.8-9.2 0-.3 0-.6 0-.8v-109.3c-.2-2-.7-4-1.7-5.7zm-33 95.1c0 4.1-2.2 8-5.8 10l-60.2 34.7c-3.6 2.1-8 2.1-11.5 0l-60.2-34.7c-3.6-2.1-5.8-5.9-5.8-10v-76.1h.1l65.8 38c.3.1.5.3.8.4 3.4 1.7 7.5 1.5 10.8-.4l66-38.1z"/></clipPath><clipPath id="b"><path d="m362.5 285.4-60.8 35.1c-3.2 1.9-7.2 1.9-10.4 0l-60.7-35.1c-3.6-2.1-8-2.1-11.6 0l-23 13.3c-3.6 2.1-5.8 5.9-5.8 10v109.4c0 4.1 2.2 7.9 5.8 10l94.6 54.6c3.6 2.1 8 2.1 11.6 0l94.8-54.6c3.6-2.1 5.8-5.9 5.8-10v-109.3c0-4.1-2.2-8-5.8-10l-23-13.3c-3.5-2.2-7.9-2.2-11.5-.1zm-71.7 157.4-60.2-34.7c-3.6-2.1-5.8-5.9-5.8-10v-76.1l65.9 38.1c3.6 2.1 8 2.1 11.6 0l66-38.1v76c0 4.1-2.2 8-5.8 10l-60.2 34.7c-3.5 2.2-7.9 2.2-11.5.1z"/></clipPath><linearGradient id="c"><stop offset="0" stop-color="#7db0f0"/><stop offset=".2368" stop-color="#5e91ed"/><stop offset=".3264" stop-color="#6194ed"/><stop offset="1" stop-color="#7db0f0"/></linearGradient><linearGradient id="d" gradientUnits="userSpaceOnUse" x1="220.55701" x2="253.129" xlink:href="#c" y1="393.61749" y2="451.6976"/><linearGradient id="e" gradientTransform="matrix(-1 0 0 1 2163.1145 0)" gradientUnits="userSpaceOnUse" x1="1790.5109" x2="1823.0829" xlink:href="#c" y1="393.61749" y2="451.6976"/><linearGradient id="f"><stop offset="0" stop-color="#7db0f0"/><stop offset="1" stop-color="#5f86b7"/></linearGradient><linearGradient id="g" gradientUnits="userSpaceOnUse" x1="207.582" x2="207.582" xlink:href="#f" y1="360.1611" y2="312.55399"/><linearGradient id="h" gradientUnits="userSpaceOnUse" x1="385.64471" x2="385.64471" xlink:href="#f" y1="371.4939" y2="308.21741"/><g transform="matrix(.19174946 0 0 .19174946 -35.991657 -46.312885)"><g fill="#1e1e1e"><path d="m491.4 424v-66.4c0-6.2.9-11.5 2.6-15.8s4.3-7.7 7.7-10.3 7.6-4.5 12.6-5.7 10.7-1.8 17.2-1.8c6.7 0 12.6.9 17.8 2.8s9.2 4.5 12 8c2.9-3.5 6.9-6.2 12.1-8 5.2-1.9 11.2-2.8 18.1-2.8 6.3 0 12 .6 17 1.8s9.2 3.1 12.6 5.7 6 6.1 7.7 10.3c1.7 4.3 2.6 9.5 2.6 15.8v66.4h-24.2v-63c0-2.9-.2-5.3-.5-7.5-.3-2.1-1-3.9-2.1-5.3s-2.8-2.5-5.1-3.2-5.4-1-9.2-1c-3.6 0-6.5.3-8.6.9s-3.8 1.6-5 2.8-2.1 2.8-2.4 4.7c-.4 1.9-.6 4-.6 6.5v65.1h-24.2v-63c0-2.9-.2-5.3-.5-7.5-.3-2.1-1.1-3.9-2.2-5.3-1.2-1.4-2.9-2.5-5.1-3.2s-5.3-1-9.1-1c-3.9 0-6.9.3-9.1 1s-3.9 1.7-5 3.2-1.8 3.2-2.1 5.3-.5 4.6-.5 7.5v63z"/><path d="m695.7 324.1c8.3 0 15.4.7 21.2 2.2s10.6 4 14.4 7.6c3.7 3.5 6.4 8.3 8.1 14.3s2.5 13.4 2.5 22.4v10.1c0 8.9-.8 16.4-2.5 22.4s-4.4 10.7-8.1 14.3c-3.7 3.5-8.5 6.1-14.4 7.6-5.8 1.5-12.9 2.2-21.2 2.2-8.5 0-15.6-.7-21.4-2.2s-10.6-4-14.4-7.6c-3.7-3.5-6.4-8.3-8.1-14.3s-2.5-13.4-2.5-22.4v-10.1c0-8.9.8-16.4 2.5-22.4s4.4-10.7 8.1-14.3c3.7-3.5 8.5-6.1 14.4-7.6 5.8-1.5 12.9-2.2 21.4-2.2zm21.6 46c0-5.7-.3-10.3-.9-13.9-.6-3.5-1.7-6.2-3.3-8.1s-3.7-3.1-6.5-3.7-6.4-.9-10.9-.9-8.1.3-11 .9-5.1 1.9-6.6 3.7c-1.6 1.9-2.6 4.6-3.3 8.1s-.9 8.2-.9 13.9v11c0 5.7.3 10.3.9 13.8s1.7 6.1 3.3 8 3.8 3.1 6.6 3.7c2.9.6 6.5.9 11 .9s8.1-.3 10.9-.9 5-1.9 6.5-3.7c1.6-1.9 2.6-4.5 3.3-8 .6-3.5.9-8.1.9-13.8z"/><path d="m803.3 424c-8.7 0-15.9-.8-21.7-2.4s-10.4-4.3-13.9-7.9c-3.5-3.7-6-8.4-7.5-14.3-1.5-5.8-2.2-13-2.2-21.4v-7.8c0-8 .7-14.8 2.1-20.6s3.8-10.6 7.2-14.4 7.8-6.6 13.2-8.4c5.5-1.8 12.2-2.7 20.1-2.7 5.3 0 10.2.6 14.6 1.8s7.8 2.7 10.2 4.6v-44.9h24.2v121c0 6.3-1.4 10.8-4.3 13.5s-8.1 4-15.7 4h-26.3zm22.1-19.4v-39.5c0-4.5-.3-8.1-.9-10.9s-1.8-5-3.5-6.5c-1.7-1.6-3.9-2.6-6.7-3.3-2.8-.6-6.4-.9-10.7-.9-4.5 0-8.1.3-10.8 1s-4.9 2-6.4 3.9-2.6 4.6-3.1 8-.7 7.8-.7 13.1v8c0 5.7.3 10.3.8 13.9.6 3.5 1.6 6.3 3.2 8.2s3.7 3.2 6.5 3.9 6.4 1 10.9 1h21.4z"/><path d="m891.8 383.7c0 4.5.3 8.1.7 11 .5 2.9 1.5 5.1 3.1 6.7s3.7 2.7 6.4 3.4c2.7.6 6.3.9 10.8.9h14.9c5.6 0 12.5-.1 20.7-.4l-3.7 18.6c-3.5.1-6.6.2-9.3.3s-5.4.1-7.9.1c-2.6 0-5.1 0-7.6 0s-5.2 0-8.2 0c-8.8 0-16.1-1-21.8-3s-10.2-4.8-13.5-8.6c-3.3-3.7-5.6-8.3-6.9-13.7s-2-11.6-2-18.5v-10.4c0-7.5.7-14 2.1-19.8s3.8-10.5 7.2-14.4 8-6.9 13.8-8.9 13.1-3 21.9-3c8.2 0 15 .9 20.4 2.7s9.8 4.3 13 7.6c3.3 3.2 5.6 7.1 7 11.5s2 9.2 2 14.4v3.2c0 4.2-.3 7.7-.7 10.3-.5 2.7-1.3 4.8-2.5 6.2-1.2 1.5-2.7 2.5-4.6 3s-4.2.7-6.9.7h-48.4zm20.1-41.4c-4.2 0-7.6.3-10.3 1-2.6.7-4.7 1.9-6.1 3.7-1.5 1.8-2.5 4.2-3 7.3-.5 3-.7 6.9-.7 11.7h40.1v-4.3c0-3.6-.3-6.6-.9-9.1s-1.7-4.5-3.2-6-3.5-2.6-6.2-3.3c-2.6-.6-5.8-1-9.7-1z"/><path d="m971.9 285.5h24.2v138.5h-24.2z"/><path d="m1040.2 424h-24.2v-63.8c0-6.2.9-11.5 2.6-15.8s4.3-7.7 7.6-10.3c3.4-2.6 7.5-4.5 12.3-5.7s10.4-1.8 16.6-1.8h12.1c3.3 0 6.6.1 9.9.2l-3.9 20.1c-2.5-.1-5.2-.2-8.2-.3s-5.5-.1-7.5-.1c-4 0-7.1.4-9.3 1.1s-4 1.8-5.2 3.3c-1.2 1.4-2 3.2-2.3 5.4s-.5 4.8-.5 7.7z"/><path d="m1097.6 437.2c3.5.1 6.6.2 9.4.3s5.4.1 7.8.1h6.9 6.6c4.2 0 7.8-.3 10.7-1s5.3-1.9 7.2-3.5c1.9-1.7 3.2-4 4-7s1.2-6.7 1.2-11.2v-1.9c-1.2 1-2.6 1.9-4 2.8s-3.1 1.6-5 2.3-4.3 1.2-7.1 1.6-6.2.6-10.3.6c-12.1 0-21.2-2.4-27.6-7.2-6.3-4.8-9.5-13-9.5-24.5v-61.5h24.2v56.7c0 2.9.2 5.3.5 7.5.3 2.1 1.1 3.9 2.2 5.3 1.2 1.4 3 2.5 5.4 3.3 2.4.7 5.7 1.1 10 1.1 4.5 0 8.1-.3 10.9-.9s4.9-1.7 6.4-3.2 2.5-3.4 3.1-5.8.8-5.3.8-8.9v-55h24.2v88c0 7.5-.8 13.9-2.5 19.2s-4.4 9.7-8.1 13c-3.7 3.4-8.5 5.8-14.4 7.4-5.8 1.6-12.9 2.3-21.2 2.3-2.6 0-5.1 0-7.5 0s-4.9 0-7.6 0-5.8 0-9-.1c-3.3-.1-7.2-.2-11.6-.3z"/></g><g clip-path="url(#a)"><path clip-path="url(#b)" d="m362.5 285.4-60.8 35.1c-3.2 1.9-7.2 1.9-10.4 0l-60.7-35.1c-3.6-2.1-8-2.1-11.6 0l-23 13.3c-3.6 2.1-5.8 5.9-5.8 10v109.4c0 4.1 2.2 7.9 5.8 10l94.6 54.6c3.6 2.1 8 2.1 11.6 0l94.8-54.6c3.6-2.1 5.8-5.9 5.8-10v-109.3c0-4.1-2.2-8-5.8-10l-23-13.3c-3.5-2.2-7.9-2.2-11.5-.1zm-71.7 157.4-60.2-34.7c-3.6-2.1-5.8-5.9-5.8-10v-76.1l65.9 38.1c3.6 2.1 8 2.1 11.6 0l66-38.1v76c0 4.1-2.2 8-5.8 10l-60.2 34.7c-3.5 2.2-7.9 2.2-11.5.1z" fill="#7db0f0"/><g clip-path="url(#b)"><path d="m296.6 447.2c0-1.1-.8-2.1-1.9-2.4-.6-.2-1.2-.4-1.7-.7l-62.3-36c-3.6-2.1-5.8-5.9-5.8-10v-25c0-1.4-1.1-2.5-2.5-2.5h-29.5c-1.4 0-2.5 1.1-2.5 2.5v47.4c0 2.6 1.4 5 3.6 6.3l98.9 57.1c1.7.9 3.7-.2 3.7-2.2z" fill="url(#d)"/><path d="m296.6 447.2c0-1.1.8-2.1 1.9-2.4.6-.2 1.2-.4 1.7-.7l62.3-36c3.6-2.1 5.8-5.9 5.8-10v-25c0-1.4 1.1-2.5 2.5-2.5h29.5c1.4 0 2.5 1.1 2.5 2.5v47.4c0 2.6-1.4 5-3.6 6.3l-98.9 57.1c-1.7.9-3.7-.2-3.7-2.2z" fill="url(#e)"/><path d="m190.3 384 34.6-.2v-61.9l-34.6-20z" fill="url(#g)"/><path d="m368.4 383.7v-61.8l34.5-20.1v82.5z" fill="url(#h)"/><path d="m368.4 282-64.4 37.2c-4.6 2.7-10.3 2.7-14.9 0l-64.2-37.2-34.5 20 106.2 61.4 106.3-61.4z" fill="#3c73f6"/></g></g></g></svg>