<svg fill="none" height="24" viewBox="0 0 24 24" width="24" xmlns="http://www.w3.org/2000/svg" xmlns:xlink="http://www.w3.org/1999/xlink"><linearGradient id="a"><stop offset="0" stop-color="#fff"/><stop offset="1" stop-color="#4974ed"/></linearGradient><linearGradient id="b" gradientUnits="userSpaceOnUse" x1="21.2155" x2="21.2155" xlink:href="#a" y1="14.6998" y2="5.00403"/><linearGradient id="c" gradientUnits="userSpaceOnUse" x1="6.87322" x2="4.3014" xlink:href="#a" y1="18.2582" y2="14.6739"/><linearGradient id="d" gradientUnits="userSpaceOnUse" x1="17.4717" x2="19.779" xlink:href="#a" y1="17.7615" y2="13.8407"/><linearGradient id="e" gradientUnits="userSpaceOnUse" x1="2.78548" x2="2.78548" xlink:href="#a" y1="12.9944" y2="5.67033"/><path d="m12.0002 18.9856v4.0145c-.1511 0-.3022-.0304-.4533-.1217l-10.09339-5.8696c-.1511-.0913-.24176-.2129-.33242-.3346l3.44506-2.0072z" fill="#88b0eb"/><path d="m4.56594 6.02956v8.63724l-3.44506 1.9768c-.09066-.152-.12088-.3041-.12088-.4866v-11.61766c0-.18248.06044-.33454.12088-.48661z" fill="#88b0eb"/><path d="m22.8794 4.02245-10.8792 6.32585-7.43405-4.31861-3.44506-2.00724c.09066-.15207.21154-.27372.36264-.36495l2.5989-1.52064c.3022-.18248.66484-.18248.99726 0l6.43681 3.74077h.0302.0302l.4533.27371.3929-.21289c.0302 0 .0604-.03041.1209-.06082l6.4368-3.74077c.3022-.18248.6648-.18248.967 0l2.5989 1.52064c.1209.09123.2418.21288.3325.36495z" fill="#4974ed"/><path d="m23.0005 4.44824v11.83056c0 .1521-.0604.2737-.1209.3954l-3.445-2.0073v-8.6372l3.445-2.00724c.0605.12165.1209.27372.1209.42578z" fill="#88b0eb"/><path d="m23.0005 4.44824v11.83056c0 .1521-.0604.2737-.1209.3954l-3.445-2.0073v-8.6372l3.445-2.00724c.0605.12165.1209.27372.1209.42578z" fill="url(#b)" opacity=".3"/><path d="m22.8791 16.6739c-.0604.1216-.1511.2129-.2417.2737l-10.2445 5.9609c-.1209.0608-.2418.0608-.3929.0608v-4.0145l7.4341-4.3186z" fill="#88b0eb"/><path d="m12.0002 18.9856v4.0145c-.1511 0-.3022-.0304-.4533-.1217l-10.09339-5.8696c-.1511-.0913-.24176-.2129-.33242-.3346l3.44506-2.0072z" fill="url(#c)" opacity=".3"/><path d="m22.8791 16.6739c-.0604.1216-.1511.2129-.2417.2737l-10.2445 5.9609c-.1209.0608-.2418.0608-.3929.0608v-4.0145l7.4341-4.3186z" fill="url(#d)" opacity=".3"/><path d="m4.56594 6.02956v8.63724l-3.44506 2.0072c-.09066-.152-.12088-.3041-.12088-.4866v-11.64806c0-.18248.06044-.33454.12088-.48661z" fill="url(#e)" opacity=".3"/></svg>