<svg fill="none" height="24" viewBox="0 0 24 24" width="24" xmlns="http://www.w3.org/2000/svg" xmlns:xlink="http://www.w3.org/1999/xlink"><linearGradient id="a" gradientUnits="userSpaceOnUse" x1="21.2239" x2="21.2239" y1="11.0402" y2="3.94361"><stop offset="0" stop-color="#fff"/><stop offset="1"/></linearGradient><path d="m22.7574 5.80447-3.0564-1.66457c-.1513-.0861-.3631-.0861-.5144 0l-10.34911 5.6538c-.18156.0861-.18156.3157 0 .4305l2.93531 1.6072c.1513.0861.3631.0861.5144 0l7.1718-3.93187v8.12197l-7.4441 4.0753-7.41389-4.0753v-8.12197l10.59119-5.79729c.1816-.0861.1816-.3157 0-.43049l-2.9353-1.6071762c-.1513-.0860984-.3631-.0860984-.5144 0l-10.47015 5.7398962c-.15131.0861-.27235.2583-.27235.43049v11.47984c0 .1722.09078.3444.27235.4304l10.47015 5.7399c.1513.0861.3631.0861.5144 0l10.4702-5.7399c.1513-.086.2723-.2582.2723-.4304v-11.47984c0-.20089-.0907-.34439-.242-.43049z" fill="#62b5c4"/><path d="m1.02979 5.91895 3.57074 1.98026v8.12199l-3.57074 1.9515z" fill="#fff" opacity=".12"/><path d="m19.4293 16.022 3.5708 1.9515-10.9846 6.0269v-3.9318z" fill="#1e2732" opacity=".1"/><path d="m19.4293 16.0218 3.5708 1.9515v-12.02506l-3.5708 1.95157z" fill="url(#a)" opacity=".29"/></svg>